# xmcd
#
# Track frame offsets:
#  150
#  11480
#  23943
#  34798
#  47355
#  55465
#  68235
#  76655
#  87993
#  97640
#  109570
#  118065
#  128358
#  141153
#  152115
#  160785
#  172293
#  182198
#  193858
#  206918
#  221148
#  231695
#  241883
#  253108
#  262738
#  275308
#  288013
#  306460
#
# Disc length: 4234 seconds
#
# Revision: 1
# Processed by: cddbd v1.5.1PL2 Copyright (c) Steve Scherf et al.
# Submitted via: Collectorz.com_Music_Collector 6.9
#
DISCID=8c10881c
DTITLE=Various Artist - The Best Of Candlelite Records - Volume 01
DYEAR=1993
DGENRE=Doo-Wop
TTITLE0=Continentals, The - My Lonely Friend
TTITLE1=Feathers, The - Why Don't You Write Me
TTITLE2=Thrashers, The - Jeanne
TTITLE3=Heartbeats, The feat. Shep - Tormented
TTITLE4=Arrogants, The - Canadian Sunset
TTITLE5=Dellchords, The - Over The Rainbow
TTITLE6=Youngsters, The - I'll Never leave You Again
TTITLE7=Sonics, The - Once In A Lifetime
TTITLE8=Enchantments, The - Oh Rosemarie
TTITLE9=Admirations, The - Gonna Find My Pretty Baby
TTITLE10=Five Discs, The - Come On Baby
TTITLE11=Majestics, The - Angel Of Love
TTITLE12=Vernalls, The - Why Can't You Be True
TTITLE13=Shells, The - If You Were Gone From Me
TTITLE14=Royal Kings, The - Peter-Peter (Pumpkin Eater)
TTITLE15=Five Satins, The - Somewhere (A Voice Is Calling)
TTITLE16=Joylarks, The - Betty My Love
TTITLE17=Five Roses, The - Romance In The Spring
TTITLE18=Milos, The - Ding Dong
TTITLE19=Capris, The - Oh, My Darling
TTITLE20=Dellchords, The - Everthing's That Way
TTITLE21=Cameos, The - Lost Lover
TTITLE22=Feathers, The feat. Jesse Belvin - Love Song
TTITLE23=Chuck-A-Lucks, The - Heaven Knows (I Love You)
TTITLE24=Youngtones, The - Can I Come Over
TTITLE25=5 Satins, The - Somewhere A Voice Is Calling
TTITLE26=Vernalls, The - Why Can't You Be True
TTITLE27=Continentals, The - My lonely Friend (Alt. Take)
EXTD=
EXTT0=
EXTT1=
EXTT2=
EXTT3=
EXTT4=
EXTT5=
EXTT6=
EXTT7=
EXTT8=
EXTT9=
EXTT10=
EXTT11=
EXTT12=
EXTT13=
EXTT14=
EXTT15=
EXTT16=
EXTT17=
EXTT18=
EXTT19=
EXTT20=
EXTT21=
EXTT22=
EXTT23=
EXTT24=
EXTT25=
EXTT26=
EXTT27=
PLAYORDER=
